<svg width="85" height="99" viewBox="0 0 85 99" fill="none" xmlns="http://www.w3.org/2000/svg">
<path fill-rule="evenodd" clip-rule="evenodd" d="M6 0H0V14.1429V42.4286L10.625 99H21.25H42.5H63.75H74.375L85 42.4286V14.1429V0H79V22.5516V45.7165L69.875 93H60.75H42.5H24.25H15.125L6 45.7165V22.5516V0Z" fill="#3F3636"/>
<path d="M30 40C30 35.5817 33.5817 32 38 32H48C52.4183 32 56 35.5817 56 40V93H30V40Z" fill="#489C21"/>
<path d="M38 10H48V16H46.8889L48 32H38L39.1111 16H38V10Z" fill="#489C21"/>
</svg>
